<svg xmlns="http://www.w3.org/2000/svg" width="1000" height="387.2" viewBox="0 0 1000 387.2"><path d="M572.5 0l-47.4 60.8h-37.8L534.9 0h37.6zm231.6 328.7l-38.2 48.9h-81l38.2-48.9h81zm47.3-60.5l-33.8 43.3h-81.1l33.9-43.3h81zm45.8-58.8l-31.9 40.9h-81l31.9-40.9h81zM656.7 77.6c-13.2 0-18.2 4.7-24.5 12.7l-79 101.2h32l21.2-27.2h34.3l-21.2 27.2h32.4l88.9-113.9zm-31.5 62.7l16.9-21.7c12.7-16.2 25.4-14.5 44.5-13.1l-27.2 34.8zm308.2-31.6l-11.3 14.5h42.3l-18.9 24.3h-42.3l-15.9 20.3h42.3l-18.5 23.7h-42.3l.2-.2h-38.7L919 77.6h81l-24.2 31.1h-42.4zM359.6 77.6l-88.9 113.9h-32.9l18.7-28.6-32.9 28.6h-24.2l6.2-28.6-24.7 28.6H148l88.8-113.9h34.9L252.2 133l70.1-55.4h37.3zm27.5 31.6l-11.2 14.4h35.4l-19.2 24.6h-35.4l-15.4 19.6h35.4l-18.4 23.7h-72.5l88.9-113.9h72.4l-24.6 31.6h-35.4zm140.7-31.6l-24.7 31.6h-15.8l-56.9 73h-38.3l57.2-73H432l24.7-31.6h71.1zm77.3 31.6l-7.4 9.5h-36l9-11.4c3.3-4.1.4-7.6-6.3-7.6h-.1c-7.8.1-10.1 1.6-14.5 7.3l-42.1 53.9c-2.3 3.2 0 5.6 3.9 6.5s11 .3 14.9-3.5c7.3-7.1 12.8-17.7 12.8-17.7h36.9l-16.8 21.6-4.3 5.5-.4.5c-15.2 17.5-30.3 17.7-39 17.7h-36.4c-12.6 0-22.5-11.2-9.3-28.7l49.2-63c15.9-19.1 28.4-22.2 46.2-22.2h26.8c21.6 2 20.7 21.7 12.9 31.6zm243-5.9l-13.8 17.8h38.6l-19.7 25.3h-38.7l-35.2 45.1h-36.5l88.9-113.9h75.2l-20.1 25.7h-38.7zM725.7 157h30.8l-26.9 34.5H663l88.8-113.9h35.8L725.7 157zM672 265.4a39.2 39.2 0 0 0 6.5 8.7 78.9 78.9 0 0 0 9.4 8.2 37.8 37.8 0 0 1 11 12.2 33.6 33.6 0 0 1 3.8 22.5 50.1 50.1 0 0 1-10.8 23.7c-10.3 12.9-21.3 23.7-32.4 31.7-11.1 8-22.2 13.1-32.6 14.4a32.7 32.7 0 0 1-5.4.4H482.2l46.7-59.8h63.8c31.5-.3 33.4-16.5 23.5-30.1a49.3 49.3 0 0 0-11.1-10.7 28.3 28.3 0 0 1-8.8-9.6 24.4 24.4 0 0 1-3.2-10c-1.1-8.7 1.9-16.7 5.4-19.5h-22.7l-109 139.7h-61l109-139.7h-65.7l-11.8 15.1h48.1l-38 48.7h-48.1L378.4 338h48.2l-38.4 49.2h-102l140.1-179.6H788l-31 39.9h-71.1c-15.7 0-19.3 7.9-13.9 17.9zm-254.3-67.1L270.4 387.2H0L58.7 341h209l111.8-142.7h38.2z"/><path d="M572.5 0l-47.4 60.8h-37.8L534.9 0h37.6zm231.6 328.7l-38.2 48.9h-81l38.2-48.9h81zm47.3-60.5l-33.8 43.3h-81.1l33.9-43.3h81zm45.8-58.8l-31.9 40.9h-81l31.9-40.9h81zM656.7 77.6c-13.2 0-18.2 4.7-24.5 12.7l-79 101.2h32l21.2-27.2h34.3l-21.2 27.2h32.4l88.9-113.9zm-31.5 62.7l16.9-21.7c12.7-16.2 25.4-14.5 44.5-13.1l-27.2 34.8zm308.2-31.6l-11.3 14.5h42.3l-18.9 24.3h-42.3l-15.9 20.3h42.3l-18.5 23.7h-42.3l.2-.2h-38.7L919 77.6h81l-24.2 31.1h-42.4zM359.6 77.6l-88.9 113.9h-32.9l18.7-28.6-32.9 28.6h-24.2l6.2-28.6-24.7 28.6H148l88.8-113.9h34.9L252.2 133l70.1-55.4h37.3zm27.5 31.6l-11.2 14.4h35.4l-19.2 24.6h-35.4l-15.4 19.6h35.4l-18.4 23.7h-72.5l88.9-113.9h72.4l-24.6 31.6h-35.4zm140.7-31.6l-24.7 31.6h-15.8l-56.9 73h-38.3l57.2-73H432l24.7-31.6h71.1zm77.3 31.6l-7.4 9.5h-36l9-11.4c3.3-4.1.4-7.6-6.3-7.6h-.1c-7.8.1-10.1 1.6-14.5 7.3l-42.1 53.9c-2.3 3.2 0 5.6 3.9 6.5s11 .3 14.9-3.5c7.3-7.1 12.8-17.7 12.8-17.7h36.9l-16.8 21.6-4.3 5.5-.4.5c-15.2 17.5-30.3 17.7-39 17.7h-36.4c-12.6 0-22.5-11.2-9.3-28.7l49.2-63c15.9-19.1 28.4-22.2 46.2-22.2h26.8c21.6 2 20.7 21.7 12.9 31.6zm243-5.9l-13.8 17.8h38.6l-19.7 25.3h-38.7l-35.2 45.1h-36.5l88.9-113.9h75.2l-20.1 25.7h-38.7zM725.7 157h30.8l-26.9 34.5H663l88.8-113.9h35.8L725.7 157zM672 265.4a39.2 39.2 0 0 0 6.5 8.7 78.9 78.9 0 0 0 9.4 8.2 37.8 37.8 0 0 1 11 12.2 33.6 33.6 0 0 1 3.8 22.5 50.1 50.1 0 0 1-10.8 23.7c-10.3 12.9-21.3 23.7-32.4 31.7-11.1 8-22.2 13.1-32.6 14.4a32.7 32.7 0 0 1-5.4.4H482.2l46.7-59.8h63.8c31.5-.3 33.4-16.5 23.5-30.1a49.3 49.3 0 0 0-11.1-10.7 28.3 28.3 0 0 1-8.8-9.6 24.4 24.4 0 0 1-3.2-10c-1.1-8.7 1.9-16.7 5.4-19.5h-22.7l-109 139.7h-61l109-139.7h-65.7l-11.8 15.1h48.1l-38 48.7h-48.1L378.4 338h48.2l-38.4 49.2h-102l140.1-179.6H788l-31 39.9h-71.1c-15.7 0-19.3 7.9-13.9 17.9zm-254.3-67.1L270.4 387.2H0L58.7 341h209l111.8-142.7h38.2z"/><path d="M114.1 294v31.4h-8.4v-25.8L97 325.4h-8.7l-8.7-25.1v25.1h-8.4V294h13.3l8 20.5 7.9-20.5h13.7zm40.7.7a30.7 30.7 0 0 0-7.6-.7h-19.9v31.4h18.9a25 25 0 0 0 8.6-1.4c4.7-2 8.3-6.2 8.3-14.9s-3.4-12.9-8.3-14.4zm-6.5 24.8h-12.7v-20.8h12.7c4 0 6.5 6.9 6.5 11s-3 9.8-6.5 9.8zm63-25.5v31.4h-8.4v-13.3l-18.2-.3v13.6h-8.4V294h8.4v12l18.2.4V294h8.4zm39.4 0h-14.6l-12.7 31.4h8.3l3-7.4 17.5.2 2.9 7.2h8.4zM237 312.3l6.4-15.8 6.4 16z"/></svg>