<?xml version="1.0" encoding="utf-8"?>
<!-- Generator: Adobe Illustrator 25.3.0, SVG Export Plug-In . SVG Version: 6.00 Build 0)  -->
<svg version="1.1" id="Layer_1" xmlns="http://www.w3.org/2000/svg" xmlns:xlink="http://www.w3.org/1999/xlink" x="0px" y="0px"
	 viewBox="0 0 435.7 88.2" style="enable-background:new 0 0 435.7 88.2;" xml:space="preserve">
<style type="text/css">
	.st0{fill:#FFFFFF;}
</style>
<path class="st0" d="M29.5,27.1c2.4,0,4.9,0.3,7.2,1.1c1.9,0.7,3.6,1.8,5,3.3c1.3,1.4,2.3,3.1,2.9,5c0.7,2,1,4.1,1,6.2
	c0,3.9-0.6,7.7-1.8,11.4c-1.2,3.6-3,6.9-5.5,9.7c-2.5,3-5.7,5.3-9.3,6.8c-4.2,1.8-8.8,2.7-13.4,2.6h-2.1c-0.6,0-1.3-0.1-1.9-0.3
	L7.9,88.2H0L14,30c2.5-1,5.1-1.7,7.7-2.2C24.3,27.3,26.9,27.1,29.5,27.1z M13.2,66.2l1.8,0.2h1.9c3,0,6-0.6,8.7-1.9
	c2.5-1.2,4.7-2.9,6.5-5.1c1.8-2.2,3.3-4.6,4.2-7.3c0.9-2.8,1.4-5.7,1.4-8.6c0-1.2-0.1-2.5-0.4-3.7c-0.3-1.2-0.8-2.2-1.6-3.1
	c-0.8-1-1.9-1.7-3.1-2.2c-1.6-0.6-3.3-0.8-5-0.8c-1.3,0-2.6,0.1-3.9,0.4l-3,0.7L13.2,66.2z M67.2,73.5c-4.7,0-8.3-1.3-11-4.1
	s-3.9-6.5-3.9-11.4c0-3.5,0.5-6.9,1.4-10.3c0.9-3.6,2.4-7,4.4-10.1c2.1-3.1,4.8-5.7,7.9-7.6c3.6-2,7.7-3,11.8-2.9
	c4.6,0,8.3,1.3,10.9,4.1s4,6.5,4,11.3c0,3.5-0.5,7-1.4,10.4c-0.9,3.6-2.4,7-4.5,10.1c-2,3.1-4.7,5.6-7.9,7.5
	C75.4,72.6,71.3,73.6,67.2,73.5z M68.5,66.8c2.5,0,4.9-0.7,6.9-2.2c2-1.6,3.8-3.5,5.1-5.7c1.4-2.4,2.5-4.9,3.2-7.6
	c0.7-2.6,1.1-5.4,1.1-8.1c0.1-2.4-0.6-4.9-1.9-6.9c-1.3-1.7-3.4-2.5-6.5-2.5c-2.4,0-4.8,0.7-6.8,2.2c-2,1.6-3.8,3.5-5.1,5.7
	c-1.4,2.4-2.5,4.9-3.2,7.6c-0.8,2.6-1.1,5.4-1.1,8.1c-0.1,2.4,0.5,4.8,1.8,6.9C63.3,66,65.4,66.8,68.5,66.8z M109.3,52.9l-0.9,3.7
	c-0.3,1.1-0.4,2.3-0.4,3.4c-0.1,1.6,0.4,3.3,1.4,4.6c0.9,1.1,2.7,1.8,5.2,2.1l-1.7,6.5c-2,0-4.1-0.4-6-1.1c-1.5-0.5-2.8-1.4-3.9-2.6
	c-1-1.1-1.7-2.4-2.1-3.8c-0.5-1.6-0.7-3.2-0.7-4.9c0-1.3,0.1-2.7,0.3-4c0.2-1.5,0.6-3,1-4.5l10.7-44.6l8.2-1.3L109.3,52.9z
	 M128.9,72.4h-8l10.7-44.2h7.9L128.9,72.4z M138,20.2c-1.2,0-2.3-0.4-3.2-1.2c-0.9-0.9-1.4-2.1-1.3-3.3c-0.1-1.6,0.5-3.2,1.7-4.3
	c1-1,2.4-1.6,3.8-1.6c1.2,0,2.4,0.4,3.3,1.2c1,0.9,1.5,2.2,1.4,3.5c0,1.6-0.6,3.1-1.8,4.1C140.8,19.6,139.4,20.1,138,20.2z
	 M153.2,66.9c1.2,0,2.4-0.1,3.6-0.4c1.1-0.1,2.2-0.5,3.2-1.1c0.9-0.5,1.7-1.2,2.3-2c0.6-1,0.9-2.1,0.9-3.3c0-0.8-0.1-1.6-0.4-2.3
	c-0.3-0.7-0.8-1.3-1.3-1.8c-0.8-0.6-1.6-1.2-2.4-1.7l-3.4-1.8c-1.2-0.6-2.4-1.2-3.5-1.9c-1.1-0.6-2.1-1.3-2.9-2.2
	c-0.8-0.9-1.5-1.9-1.9-3c-0.5-1.4-0.7-2.8-0.7-4.2c-0.1-4,1.6-7.7,4.6-10.3c3.1-2.6,7.5-3.8,13.4-3.8c2.4-0.1,4.8,0.2,7.2,0.8
	c1.5,0.3,2.9,0.8,4.3,1.5l-3,6.4c-1.2-0.6-2.5-1-3.8-1.4c-1.9-0.5-3.9-0.8-5.9-0.8c-1.1,0-2.2,0.1-3.2,0.4c-1.1,0.2-2.1,0.6-3,1.1
	c-0.9,0.5-1.6,1.2-2.1,2.1c-0.5,1-0.8,2.1-0.8,3.2c0,1.5,0.6,2.9,1.8,3.8c1.6,1.2,3.4,2.3,5.3,3.1l4,2.1c1.1,0.7,2.1,1.5,3,2.4
	c0.8,0.9,1.4,2,1.8,3.1c0.5,1.3,0.7,2.8,0.7,4.2c0,2.2-0.4,4.3-1.4,6.3c-0.8,1.8-2.1,3.4-3.8,4.6c-1.7,1.2-3.7,2.1-5.7,2.6
	c-2.3,0.6-4.8,0.9-7.2,0.9c-1.8,0-3.5-0.1-5.3-0.4l-4.1-0.8l-2.9-1.1l-1.7-0.9l3.1-6.5l1.6,0.9l2.6,1l3.3,0.8
	C150.7,66.8,152,66.9,153.2,66.9L153.2,66.9z M177.2,72.4l15.6-64.7l8.2-1.3l-5.4,22.4c1.3-0.5,2.7-0.9,4.1-1.1
	c1.4-0.3,2.9-0.5,4.4-0.5c2.2,0,4.5,0.3,6.6,1.1c1.7,0.6,3.2,1.6,4.5,2.9c1.1,1.3,2,2.8,2.5,4.4c0.5,1.9,0.8,3.8,0.8,5.7
	c-0.1,2.9-0.5,5.7-1.2,8.5l-5.5,22.6h-7.9l5-20.9l1.2-4.9c0.4-1.5,0.5-3.1,0.5-4.6c0.1-2.1-0.6-4.1-1.8-5.7c-1.3-1.5-3.6-2.3-7-2.3
	c-1.4,0-2.8,0.2-4.2,0.4c-1.2,0.2-2.5,0.6-3.6,1.1l-8.9,36.9H177.2z M243.2,73.5c-2.6,0.1-5.1-0.3-7.5-1.2c-2-0.7-3.8-1.9-5.3-3.4
	c-1.4-1.5-2.5-3.2-3.2-5.1c-0.6-2-1-4-1-6.1c0-3.9,0.6-7.8,1.8-11.5c1.1-3.5,2.9-6.8,5.1-9.8c2.2-2.8,4.9-5.1,8.1-6.7
	c3.3-1.7,7-2.6,10.8-2.6c2,0,4.1,0.3,6,0.9c1.5,0.5,2.9,1.4,4.1,2.5c1,1,1.8,2.2,2.3,3.5c0.5,1.3,0.8,2.7,0.8,4.1
	c0.1,2.3-0.4,4.7-1.4,6.8c-1,1.8-2.3,3.4-3.9,4.6c-1.7,1.3-3.6,2.3-5.6,2.9c-2.2,0.7-4.4,1.2-6.6,1.6c-2.3,0.4-4.7,0.7-7,0.8
	l-6.7,0.4V57c0,1.2,0.1,2.5,0.4,3.7c0.3,1.2,0.9,2.3,1.8,3.1c1,1,2.2,1.7,3.5,2.1c1.9,0.5,3.9,0.8,5.9,0.7l3.4-0.3l3.3-0.7l2.8-1
	c0.6-0.2,1.2-0.5,1.8-0.9l0.6,6.8c-1.8,0.9-3.6,1.5-5.5,2C249.1,73.2,246.2,73.6,243.2,73.5L243.2,73.5z M235.1,49.2
	c3-0.1,6-0.3,9-0.7c2.4-0.2,4.8-0.8,7.1-1.6c1.8-0.6,3.4-1.7,4.6-3.1c1.2-1.4,1.8-3.3,1.7-5.1c0-0.5-0.1-1.1-0.3-1.6
	c-0.2-0.6-0.6-1.2-1.1-1.6c-0.5-0.6-1.2-1-2-1.2c-1-0.3-2.1-0.4-3.1-0.4c-1.9,0-3.8,0.4-5.6,1.2c-1.7,0.9-3.3,2-4.6,3.4
	c-1.4,1.4-2.6,3.1-3.5,4.9C236.3,45.2,235.6,47.2,235.1,49.2L235.1,49.2z M304.3,63.7c0,1.3,0.1,2.6,0.3,3.9
	c0.2,1.5,0.6,2.9,1.2,4.3l-7,1c-0.7-1.4-1.2-2.9-1.4-4.5c-1.5,1.3-3.3,2.5-5.1,3.4c-2.4,1.2-5,1.8-7.7,1.7c-2.2,0-4.4-0.3-6.5-1.1
	c-1.7-0.7-3.3-1.9-4.5-3.3c-1.2-1.5-2.1-3.2-2.6-5.1c-0.6-2.1-0.9-4.2-0.9-6.4c0-3.8,0.7-7.5,1.9-11.1c1.2-3.6,3.2-6.9,5.8-9.7
	c2.6-3,5.8-5.3,9.4-6.9c4.2-1.8,8.7-2.7,13.3-2.6h1.9c0.6,0.1,1.3,0.2,1.9,0.3l4.8-20l8.3-1.3l-12,49.8c-0.3,1.3-0.6,2.5-0.8,3.7
	C304.4,61.1,304.3,62.4,304.3,63.7L304.3,63.7z M286.2,66.8c2.1,0.1,4.2-0.5,6.1-1.5c1.6-0.9,3.1-2.1,4.4-3.4c0-1,0.1-2,0.3-3
	c0.1-1.1,0.3-2.3,0.6-3.4l5.1-21.3L301,34h-1.8c-3,0-6,0.6-8.7,1.8c-2.5,1.2-4.8,2.9-6.7,5c-1.9,2.1-3.3,4.6-4.3,7.3
	c-1,2.8-1.5,5.7-1.5,8.7c0,1.2,0.2,2.5,0.5,3.7c0.2,1.1,0.7,2.2,1.3,3.2c0.7,0.9,1.5,1.7,2.5,2.3C283.5,66.5,284.9,66.8,286.2,66.8
	L286.2,66.8z"/>
<path class="st0" d="M435.7,0l-18.5,76.9h-85.9L349.8,0H435.7z M396.3,44.3l13.7-3.5c2.8-0.7,3.8-3.9,1.4-4.7l-11.6-3.5
	c-3.2-0.8-5.5-3.7-5.4-7l0.3-15.2c0-2.5-4-2.5-5.4,0l-8.9,15.2c-2.2,3.5-5.6,6-9.6,7L357,36.1c-2.8,0.8-3.7,4-1.4,4.7l11.7,3.5
	c3.2,0.8,5.5,3.8,5.4,7.1l-0.3,15.2c0,2.4,3.9,2.4,5.4,0l8.8-15.2C388.8,47.8,392.3,45.3,396.3,44.3z"/>
</svg>
