<svg xmlns="http://www.w3.org/2000/svg" width="435.7" height="88.2" viewBox="0 0 435.7 88.2"><path d="M29.5 27.1a21.8 21.8 0 0 1 7.2 1.1 13.7 13.7 0 0 1 5 3.3 13.2 13.2 0 0 1 2.9 5 17.5 17.5 0 0 1 1 6.2 36.7 36.7 0 0 1-1.8 11.4 27.5 27.5 0 0 1-5.5 9.7 25 25 0 0 1-9.3 6.8 32.7 32.7 0 0 1-13.4 2.6h-2.1a9.5 9.5 0 0 1-1.9-.3L7.9 88.2H0L14 30a41 41 0 0 1 7.7-2.2 45.9 45.9 0 0 1 7.8-.7zM13.2 66.2l1.8.2h1.9a19.9 19.9 0 0 0 8.7-1.9 19.2 19.2 0 0 0 6.5-5.1 22.9 22.9 0 0 0 4.2-7.3 27.2 27.2 0 0 0 1.4-8.6 15 15 0 0 0-.4-3.7 7.1 7.1 0 0 0-1.6-3.1 7.9 7.9 0 0 0-3.1-2.2 14.1 14.1 0 0 0-5-.8 16.1 16.1 0 0 0-3.9.4l-3 .7zm54 7.3c-4.7 0-8.3-1.3-11-4.1s-3.9-6.5-3.9-11.4a38 38 0 0 1 1.4-10.3 32.6 32.6 0 0 1 4.4-10.1A26 26 0 0 1 66 30a23.2 23.2 0 0 1 11.8-2.9c4.6 0 8.3 1.3 10.9 4.1s4 6.5 4 11.3a43.2 43.2 0 0 1-1.4 10.4A32.9 32.9 0 0 1 86.8 63a24.7 24.7 0 0 1-7.9 7.5 21.9 21.9 0 0 1-11.7 3zm1.3-6.7a11.4 11.4 0 0 0 6.9-2.2 20.1 20.1 0 0 0 5.1-5.7 30.5 30.5 0 0 0 3.2-7.6 33.5 33.5 0 0 0 1.1-8.1 11.8 11.8 0 0 0-1.9-6.9c-1.3-1.7-3.4-2.5-6.5-2.5a11.1 11.1 0 0 0-6.8 2.2 20.1 20.1 0 0 0-5.1 5.7 27.2 27.2 0 0 0-3.2 7.6 28.7 28.7 0 0 0-1.1 8.1 12 12 0 0 0 1.8 6.9c1.3 1.7 3.4 2.5 6.5 2.5zm40.8-13.9l-.9 3.7a13.7 13.7 0 0 0-.4 3.4 7.2 7.2 0 0 0 1.4 4.6c.9 1.1 2.7 1.8 5.2 2.1l-1.7 6.5a17.4 17.4 0 0 1-6-1.1 9.9 9.9 0 0 1-3.9-2.6 8.3 8.3 0 0 1-2.1-3.8 15.3 15.3 0 0 1-.7-4.9 28 28 0 0 1 .3-4 40.8 40.8 0 0 1 1-4.5l10.7-44.6 8.2-1.3zm19.6 19.5h-8l10.7-44.2h7.9zm9.1-52.2a4.4 4.4 0 0 1-3.2-1.2 4.2 4.2 0 0 1-1.3-3.3 5.2 5.2 0 0 1 1.7-4.3 5.2 5.2 0 0 1 3.8-1.6 4.8 4.8 0 0 1 3.3 1.2 4.5 4.5 0 0 1 1.4 3.5 5.2 5.2 0 0 1-1.8 4.1 6.1 6.1 0 0 1-3.9 1.6zm15.2 46.7a14.7 14.7 0 0 0 3.6-.4 8.1 8.1 0 0 0 3.2-1.1 6.4 6.4 0 0 0 2.3-2 5.8 5.8 0 0 0 .9-3.3 5.6 5.6 0 0 0-.4-2.3 6.8 6.8 0 0 0-1.3-1.8 24.9 24.9 0 0 0-2.4-1.7l-3.4-1.8a28.9 28.9 0 0 1-3.5-1.9 10.6 10.6 0 0 1-2.9-2.2 9.1 9.1 0 0 1-1.9-3 13.2 13.2 0 0 1-.7-4.2 13 13 0 0 1 4.6-10.3c3.1-2.6 7.5-3.8 13.4-3.8a26.4 26.4 0 0 1 7.2.8 17 17 0 0 1 4.3 1.5l-3 6.4a24.5 24.5 0 0 0-3.8-1.4 22.1 22.1 0 0 0-5.9-.8 11.2 11.2 0 0 0-3.2.4 9.8 9.8 0 0 0-3 1.1 5.3 5.3 0 0 0-2.1 2.1 6.6 6.6 0 0 0-.8 3.2 4.6 4.6 0 0 0 1.8 3.8 26.5 26.5 0 0 0 5.3 3.1l4 2.1a14.4 14.4 0 0 1 3 2.4 8.7 8.7 0 0 1 1.8 3.1 10.9 10.9 0 0 1 .7 4.2 13.9 13.9 0 0 1-1.4 6.3 11.4 11.4 0 0 1-3.8 4.6 18.7 18.7 0 0 1-5.7 2.6 27.3 27.3 0 0 1-7.2.9 28.6 28.6 0 0 1-5.3-.4l-4.1-.8-2.9-1.1-1.7-.9 3.1-6.5 1.6.9 2.6 1 3.3.8a14.5 14.5 0 0 0 3.7.4zm24 5.5l15.6-64.7 8.2-1.3-5.4 22.4a19.1 19.1 0 0 1 4.1-1.1 22 22 0 0 1 4.4-.5 19 19 0 0 1 6.6 1.1 12.9 12.9 0 0 1 4.5 2.9 12.6 12.6 0 0 1 2.5 4.4 20.1 20.1 0 0 1 .8 5.7 35.3 35.3 0 0 1-1.2 8.5l-5.5 22.6h-7.9l5-20.9 1.2-4.9a19 19 0 0 0 .5-4.6 8.8 8.8 0 0 0-1.8-5.7c-1.3-1.5-3.6-2.3-7-2.3a29.8 29.8 0 0 0-4.2.4 12.8 12.8 0 0 0-3.6 1.1l-8.9 36.9zm66 1.1a21.1 21.1 0 0 1-7.5-1.2 15.1 15.1 0 0 1-5.3-3.4 14.2 14.2 0 0 1-3.2-5.1 20 20 0 0 1-1-6.1 36.9 36.9 0 0 1 1.8-11.5 32.6 32.6 0 0 1 5.1-9.8 23.9 23.9 0 0 1 8.1-6.7 22.7 22.7 0 0 1 10.8-2.6 18 18 0 0 1 6 .9 10.5 10.5 0 0 1 4.1 2.5 10.1 10.1 0 0 1 2.3 3.5 11.5 11.5 0 0 1 .8 4.1 15.5 15.5 0 0 1-1.4 6.8 14.5 14.5 0 0 1-3.9 4.6 16.5 16.5 0 0 1-5.6 2.9 45.4 45.4 0 0 1-6.6 1.6 53.5 53.5 0 0 1-7 .8l-6.7.4V57a14.5 14.5 0 0 0 .4 3.7 6.5 6.5 0 0 0 1.8 3.1 8 8 0 0 0 3.5 2.1 19.4 19.4 0 0 0 5.9.7l3.4-.3 3.3-.7 2.8-1a7.4 7.4 0 0 0 1.8-.9l.6 6.8a26.4 26.4 0 0 1-5.5 2 32.8 32.8 0 0 1-8.8 1zm-8.1-24.3a78.5 78.5 0 0 0 9-.7 27.5 27.5 0 0 0 7.1-1.6 11 11 0 0 0 4.6-3.1 7.7 7.7 0 0 0 1.7-5.1 5 5 0 0 0-.3-1.6 4.2 4.2 0 0 0-1.1-1.6 4.3 4.3 0 0 0-2-1.2 9.3 9.3 0 0 0-3.1-.4 13.1 13.1 0 0 0-5.6 1.2 17.2 17.2 0 0 0-4.6 3.4 17.5 17.5 0 0 0-3.5 4.9 22.5 22.5 0 0 0-2.2 5.8zm69.2 14.5a25.6 25.6 0 0 0 .3 3.9 20.1 20.1 0 0 0 1.2 4.3l-7 1a15.9 15.9 0 0 1-1.4-4.5 23.7 23.7 0 0 1-5.1 3.4 15.1 15.1 0 0 1-7.7 1.7 18 18 0 0 1-6.5-1.1 12.5 12.5 0 0 1-4.5-3.3A13.7 13.7 0 0 1 271 64a21.5 21.5 0 0 1-.9-6.4 35 35 0 0 1 1.9-11.1 27.3 27.3 0 0 1 5.8-9.7 26.4 26.4 0 0 1 9.4-6.9 32.5 32.5 0 0 1 13.3-2.6h1.9a12.5 12.5 0 0 1 1.9.3l4.8-20 8.3-1.3-12 49.8c-.3 1.3-.6 2.5-.8 3.7a23.4 23.4 0 0 0-.3 3.9zm-18.1 3.1a11.7 11.7 0 0 0 6.1-1.5 21.5 21.5 0 0 0 4.4-3.4 16.9 16.9 0 0 1 .3-3 24.5 24.5 0 0 1 .6-3.4l5.1-21.3-1.7-.2h-1.8a20.5 20.5 0 0 0-8.7 1.8 21 21 0 0 0-6.7 5 22.4 22.4 0 0 0-4.3 7.3 25.7 25.7 0 0 0-1.5 8.7 15 15 0 0 0 .5 3.7 10.2 10.2 0 0 0 1.3 3.2 9.2 9.2 0 0 0 2.5 2.3 9.3 9.3 0 0 0 3.9.8z"/><path fill="#09a38c" d="M435.7 0l-18.5 76.9h-85.9L349.8 0zm-39.4 44.3l13.7-3.5c2.8-.7 3.8-3.9 1.4-4.7l-11.6-3.5a7 7 0 0 1-5.4-7l.3-15.2c0-2.5-4-2.5-5.4 0l-8.9 15.2a15.8 15.8 0 0 1-9.6 7L357 36.1c-2.8.8-3.7 4-1.4 4.7l11.7 3.5a7.1 7.1 0 0 1 5.4 7.1l-.3 15.2c0 2.4 3.9 2.4 5.4 0l8.8-15.2a15.8 15.8 0 0 1 9.7-7.1z"/></svg>