<svg xmlns="http://www.w3.org/2000/svg" width="1000" height="299.2" viewBox="0 0 1000 299.2"><path fill="#fff" d="M149.1 288.3l-40.7-28.6a138.4 138.4 0 0 1-59.1-111.1l-1.4-77.3L71 55.2a134.8 134.8 0 0 1 155.5.7l21.8 15.5 1.8 65.7a148.7 148.7 0 0 1-62.5 125.4z"/><path d="M149 292.3l-42.5-29.9A141.9 141.9 0 0 1 46 148.7l-1.4-79 24.6-17.2a137.2 137.2 0 0 1 79.1-24.9h.6a137.2 137.2 0 0 1 79.5 25.6l23.1 16.5 1.8 67.3a151.4 151.4 0 0 1-63.8 128.1zM51.2 73l1.3 75.6a136.2 136.2 0 0 0 57.7 108.5l38.9 27.3 36.7-24.6a145.1 145.1 0 0 0 61-122.6l-1.7-64.1-20.5-14.6a131.6 131.6 0 0 0-151.7-.7z"/><path d="M149.1 285.2l-39.3-27.9a136.1 136.1 0 0 1-56.9-108.4l-1.3-75.4 22.3-15.8a128.7 128.7 0 0 1 149.8.7l20.9 15.1 1.8 64.1a145.3 145.3 0 0 1-60.1 122.2z"/><path fill="#fff" d="M149 287.5l-40.3-28.6a137.6 137.6 0 0 1-57.7-110l-1.4-76.4 23.2-16.4a130.5 130.5 0 0 1 152 .7l21.8 15.7 1.8 65a147.5 147.5 0 0 1-61 123.9zm-95.5-213l1.4 74.3a134.6 134.6 0 0 0 15.4 60.3 132.4 132.4 0 0 0 40.7 46.6l38.1 27.1 36-24.6a143.4 143.4 0 0 0 59.4-120.6l-1.8-63.1L222.5 60A126.6 126.6 0 0 0 75 59.3z"/><path fill="#fff" d="M148.8 285.2l-39.2-27.9a135.8 135.8 0 0 1-56.9-108.4l-1.3-75.4 22.3-15.8a129 129 0 0 1 75-23.7c0 35.6.1 251.2.1 251.2z"/><path fill="#fff" d="M150.7 288.9l-42.3-30a137.9 137.9 0 0 1-57.6-110l-1.4-76.4 23.1-16.4A130.6 130.6 0 0 1 148.7 32h1.9v2c.1 35.2.1 249 .1 251.2zM53.3 74.5l1.4 74.3a133.4 133.4 0 0 0 56 106.9l36.1 25.7c0-28.4 0-208-.1-245.4a126 126 0 0 0-71.9 23.3z"/><path fill="#fff" d="M148.8 149l-25.6-25.9L149.1.7l-.3 148.3zm-43.4-22.1L65.7 66.1l57.2 57.1-17.5 3.7zm127.2 105.8l-57.2-57.1 17.6-3.7m39.2-106.5l-57.1 57.3-3.7-17.6M65.8 232.7l57.1-57.3 3.7 17.6m22.7-43.4l25.7 25.9-25.9 122.4.2-148.3zm-.5-.2L122.9 175 .5 149.2l148.3.2z"/><path fill="#040d00" d="M123.2 123.1L65 65l62.1 39.8-3.9 18.3zm48 70.2L175 175l58.3 58.1m-40-106.1l-18.3-3.8 58.1-58.3M104.7 171.3l18.3 3.8-58 58.3"/><path fill="#fff" d="M149.1 148.8l25.9-25.6 122.4 25.9-148.3-.3z"/><path fill="#040d00" d="M149.1 149.4L175 175l122.4-25.8-148.3.2zm-.3.2l-25.6 25.9 25.9 122.4-.3-148.3zm0-.8l-25.9-25.6L.5 149.1l148.3-.3zm.5.2l25.7-25.9L149.1.7l.2 148.3z"/><path d="M149.1 299.2a.8.8 0 0 1-.7-.5L126 192.6l-3.6-17.2a.7.7 0 0 1 .1-.6l26.1-26.1a.6.6 0 0 1 .7-.1.7.7 0 0 1 .4.6v149.4a.6.6 0 0 1-.6.6zm-25.4-123.7l3.6 16.9 21.1 100V150.8z"/><path d="M149.1 299.2h-.1a.6.6 0 0 1-.6-.6V149.2a.7.7 0 0 1 .4-.6.6.6 0 0 1 .7.1l26 26a.7.7 0 0 1 .1.6l-3.6 17.3-22.3 106.1a.6.6 0 0 1-.6.5zm.6-148.4v141.5l21-99.9 3.6-17z"/><path d="M175 175.8a.6.6 0 0 1-.5-.2l-25.9-26c-.2-.1-.2-.4-.1-.7a.7.7 0 0 1 .6-.4H297a.6.6 0 0 1 .6.6.5.5 0 0 1-.5.7l-104.2 22.1-17.4 3.7a.5.5 0 0 1-.4.2zm-24.4-26l24.5 24.6 17.6-3.8 98.1-20.8z"/><path d="M297 149.8H149.1a.5.5 0 0 1-.6-.4.6.6 0 0 1 .1-.7l26.1-26.1.6-.2 17.6 3.9 104.2 22.3a.5.5 0 0 1 .5.7.6.6 0 0 1-.6.5zm-146.4-1.3h140.3l-98.2-21-17.4-3.7z"/><path d="M149.1 149.8h-.3a.7.7 0 0 1-.4-.6V.7a.7.7 0 0 1 .6-.7.8.8 0 0 1 .7.5l22.2 104.6 3.7 17.5v.2a.6.6 0 0 1-.1.7l-26.1 26.1a.4.4 0 0 1-.3.2zm.6-143v140.8l24.6-24.7-3.7-17.6z"/><path d="M149.1 149.8c-.2 0-.4 0-.5-.2l-26.1-26a.8.8 0 0 1-.1-.7c0-.1.1-.3.2-.3l3.8-18L148.4.5a.8.8 0 0 1 .7-.5c.4 0 .6.3.6.7v148.5a.7.7 0 0 1-.4.6zm-25.2-26.7l24.5 24.5V6.9l-20.7 98z"/><path d="M123 176h-.2a.5.5 0 0 1-.4-.3l-17.4-3.8L.5 149.8c-.3 0-.5-.3-.5-.7a.6.6 0 0 1 .6-.6h148.5a.8.8 0 0 1 .6.4.6.6 0 0 1-.2.7l-26.1 26.2zM6.9 149.8l98.3 20.8 17.8 3.8 24.5-24.6z"/><path d="M149.1 149.8H.6a.6.6 0 0 1-.6-.5c0-.4.2-.7.5-.7l104.7-22.3h.2l17.1-3.6h.3a.5.5 0 0 1 .6.2l26.1 26a.7.7 0 0 1 .2.7.6.6 0 0 1-.6.2zM6.8 148.5h140.7l-24.7-24.6-17.1 3.6h-.2z"/><path d="M123 123.6l-.3-.2-58-58a.5.5 0 0 1-.1-.6.5.5 0 0 1 .6-.1l62.1 39.7a.8.8 0 0 1 .2.4l-3.9 18.4a.3.3 0 0 1-.3.3h-.3zm-54.9-56l54.8 54.8 3.7-17.4z"/><path d="M105.4 127.3a.5.5 0 0 1-.4-.2L64.6 65.3c-.1-.2-.1-.5.1-.6a.6.6 0 0 1 .6 0l57.9 58.2c.1.1.1.2.1.4s-.2.3-.4.3l-17.3 3.7h-.2zm-37.8-59l38 58.1 16.4-3.5zm107.5 55.2h-.1c-.2 0-.3-.1-.4-.3l-3.8-17.9c0-.2 0-.4.2-.5l61.9-40.1c.2-.1.4-.1.5.1s.2.4 0 .6l-58 58zm-3.4-18.1l3.6 16.9 54.6-54.7z"/><path d="M170.924 105.03l.071-.07.613.616-.07.071zM192.8 127.3h-.1l-17.7-3.8-.3-.3c0-.2 0-.3.1-.4l58-58.1a.6.6 0 0 1 .6 0c.2.1.2.4.1.6l-40.3 61.8zm-16.8-4.5l16.6 3.6 37.9-58.1zm57.1 111l-.3-.2-58.1-58.1a.4.4 0 0 1-.1-.5c.1-.1.2-.3.4-.3l17.7-3.8.5.2 40.3 62.1a.5.5 0 0 1-.1.6zm-57.3-58.5l54.7 54.8-37.9-58.3z"/><path d="M233.1 233.8h-.2L171.1 193a.8.8 0 0 1-.2-.5l3.7-17.3a.3.3 0 0 1 .3-.3c.1-.1.3 0 .4.1l58.1 58a.4.4 0 0 1 0 .6zm-61.3-41.5l58 38.3-54.5-54.6zM65 233.8a.5.5 0 0 1-.4-.2.5.5 0 0 1 .1-.6l58-58c.1-.1.3-.2.4-.1a.3.3 0 0 1 .3.3l3.6 17.2a.4.4 0 0 1-.1.5l-61.7 40.8zm57.7-57.6l-54.4 54.4 57.8-38.3z"/><path d="M65 233.8h-.3a.5.5 0 0 1-.1-.6l40.1-62.2.5-.2 17.8 3.8.3.3v.3c.1.1 0 .3-.1.4l-58 58zm40.3-62l-37.8 58.3 54.8-54.7zm280.3-40.5h14.7v6.5h.2a37.6 37.6 0 0 1 22-6.5q24.6 0 34.2 22.2a38.6 38.6 0 0 1 2.8 14.2v37.5h-14.7v-37a23.7 23.7 0 0 0-5.7-15.7c-4-4.3-9.5-6.4-16.6-6.4-10.1 0-16.9 4.3-20.4 13a26.4 26.4 0 0 0-1.8 9.6v36.5h-14.7zm117.5 0c9.7 0 18.3 3.7 25.9 10.9s10.8 16.3 10.8 26.1-4 19.4-11.9 27.2-15.7 9.7-24.9 9.7h-.3c-11 0-20.4-4.4-28.2-13.1a37 37 0 0 1-2.1-44.9c7.9-10.6 18.2-15.9 30.7-15.9zm-22.4 35.8v.9l-.2.2h.2v1c0 6 2.8 11.6 8.5 16.7a23.8 23.8 0 0 0 13.6 4.5c7.3 0 13.3-3.1 18.1-9.3a23 23 0 0 0 4.2-12.9c0-7.6-3.5-14-10.6-19a24 24 0 0 0-12-3.2c-7.4 0-13.5 3.4-18.5 10.3a21.6 21.6 0 0 0-3.3 10.8zm65.4-35.8h14.7v8.4h.2q11.7-8.4 29.4-8.4v14.8c-14.3 0-23.5 4.9-27.8 14.9a21.2 21.2 0 0 0-1.8 8v36.2h-14.7zM608.7 94h14.7v37.3H636v14.8h-12.6v59.1h-14.7v-59.1H596v-14.8h12.7zm32.7.4h14.7v44.2h.2a37.3 37.3 0 0 1 22.4-7.3c11.1 0 20.8 4.8 28.9 14.2 5.1 7.1 7.6 14.5 7.6 22.1v37.6h-14.7V168c0-7.6-3.5-13.7-10.5-18.5a21.3 21.3 0 0 0-12-3.4c-6.9 0-12.8 3.1-17.7 9.4-2.8 3.7-4.2 8.4-4.2 14v35.7h-14.7zm142.5 36.9h42.7v14.8h-42.7c-4 0-6.5.6-7.4 1.9a10.1 10.1 0 0 0-2.1 5.8 6.4 6.4 0 0 0 4.5 6.6l2.7.6h19.8c11.9 0 19.8 4.5 23.4 13.7a25.8 25.8 0 0 1 1.5 8.5c0 9.1-4.1 15.7-12.2 19.7a21.9 21.9 0 0 1-9.2 2.3H760v-14.7h44.1a7 7 0 0 0 7-4.4l.5-3.1c0-4.9-3-7.4-9.1-7.4h-21.3c-5.6 0-10.8-2.1-15.5-6.4a21.7 21.7 0 0 1-6-15.6 23.7 23.7 0 0 1 5.8-15.4c3.8-4.6 9.9-6.9 18.4-6.9zM845 94h14.7v37.3h12.6v14.8h-12.6v59.1H845v-59.1h-12.7v-14.8H845zm67.6 37.3a36.9 36.9 0 0 1 21.9 7.3h.2v-7.3h14.7v73.9h-14.7v-7.3c-6.8 4.9-13.8 7.3-21 7.3h-2c-11 0-20.6-4.8-28.7-14.5a38.3 38.3 0 0 1-7.4-22.4c0-12.2 5.3-22.3 15.8-30.3a37.2 37.2 0 0 1 21.2-6.7zm-22.3 36.9c0 8.3 3.9 14.8 11.8 19.7a22.1 22.1 0 0 0 10.2 2.6h.9c6.7 0 12.5-3.1 17.5-9.3a22.1 22.1 0 0 0 4-12.2v-1c0-7.7-3.6-14-11-18.9a23.6 23.6 0 0 0-11.3-3c-7 0-13 3.1-17.9 9.3a22.7 22.7 0 0 0-4.2 12.8zm65.4-36.9h14.8v8.4h.1q11.9-8.4 29.4-8.4v14.8c-14.2 0-23.5 4.9-27.8 14.9a20.9 20.9 0 0 0-1.7 8v36.2h-14.8z"/></svg>