<svg xmlns="http://www.w3.org/2000/svg" width="1000" height="297.8" viewBox="0 0 1000 297.8"><path d="M255 227.9l-118.2 68.2a12.5 12.5 0 0 1-12.4 0L6.2 227.9A12.6 12.6 0 0 1 0 217.1V80.6a12.4 12.4 0 0 1 6.2-10.7L124.4 1.7a12 12 0 0 1 12.4 0L255 69.9a12.4 12.4 0 0 1 6.2 10.7v136.5a12.6 12.6 0 0 1-6.2 10.8zm-48.1-15.1V85a12.5 12.5 0 0 0-12.4-12.4H66.7A12.5 12.5 0 0 0 54.3 85v127.8a12.5 12.5 0 0 0 12.4 12.4h127.8a12.5 12.5 0 0 0 12.4-12.4z"/><path d="M147.1 197.5l35.6-61.6a19.1 19.1 0 0 0-16.5-28.7H95a19.1 19.1 0 0 0-16.5 28.7l35.6 61.6a19 19 0 0 0 33 0zm277.4-82.8h-35.9v97.2h-28.8v-97.2h-35.2V92.4h99.9zm-9.7 52c0-8.9 1.7-16.8 5.2-23.7a37.6 37.6 0 0 1 14.8-16c6.5-3.7 14.1-5.5 22.8-5.5 13.3 0 23.7 4.1 31.4 12.3s11.5 19.5 11.5 33.6v1c0 13.9-3.9 24.8-11.6 33s-18 12.1-31.2 12.1-22.8-3.7-30.4-11.3-11.8-17.9-12.4-30.8zm27.7 1.7c0 8.2 1.2 14.2 3.8 18.1s6.4 5.7 11.4 5.7c9.9 0 14.9-7.6 15.1-22.7v-2.8c0-15.9-5.1-23.9-15.2-23.9s-14.3 6.9-15.1 20.6zm152.6-.2c0 13.7-3.1 24.8-9.3 33s-14.6 12.3-25.2 12.3a25.6 25.6 0 0 1-20.1-8.9V246h-27.6V123.1h25.8l.8 8.2c5.3-6.5 12.3-9.8 21-9.8 10.9 0 19.4 4 25.5 12.1s9.1 19.1 9.1 33.2zm-27.7-1.8c0-15.7-4.6-23.6-13.7-23.6-6.6 0-11 2.4-13.2 7.1v34.9c2.4 4.9 6.9 7.4 13.3 7.4 8.8 0 13.4-7.6 13.6-22.8zM696 105.3h-38.5v106.6h-15.6V105.3h-38.3V92.4H696zm60.8 106.6c-.8-1.7-1.5-4.9-2.1-9.4a33.6 33.6 0 0 1-25.3 11c-8.7 0-15.9-2.4-21.5-7.4a23.9 23.9 0 0 1-8.4-18.8c0-9.3 3.5-16.4 10.5-21.6s16.9-7.6 29.7-7.6h14.8v-7c0-5.3-1.6-9.5-4.8-12.7s-7.8-4.7-14-4.7a22.2 22.2 0 0 0-13.6 4.1c-3.7 2.7-5.5 6-5.5 9.9h-15.3a21.1 21.1 0 0 1 4.7-12.8 32.7 32.7 0 0 1 12.8-9.8 43.2 43.2 0 0 1 17.8-3.6c10.2 0 18.2 2.5 24 7.6s8.8 12.2 9 21.2v40.8c0 8.2 1.1 14.7 3.2 19.5v1.3zm-25.1-11.6a26.4 26.4 0 0 0 13.5-3.7 22 22 0 0 0 9.3-9.6v-18.2h-11.9c-18.6 0-27.9 5.5-27.9 16.4 0 4.7 1.6 8.4 4.7 11.1s7.3 4 12.3 4zm136.9-31.8q0 20.4-9.3 32.7c-6.3 8.2-14.6 12.3-25.2 12.3s-19.8-3.9-26-11.9l-.7 10.3h-14v-126h15.2v47c6.2-7.6 14.6-11.4 25.4-11.4s19.2 4 25.4 12.2 9.2 19.3 9.2 33.5zm-15.2-1.7q0-15.6-6-24c-4-5.6-9.7-8.4-17.2-8.4-10 0-17.2 4.6-21.6 13.9v38.4c4.7 9.3 11.9 14 21.8 14a20 20 0 0 0 17-8.5c4-5.6 6-14.1 6-25.4zm50.8 45.1H889v-126h15.2zm61.2 1.6c-12.1 0-21.9-3.9-29.4-11.8s-11.3-18.5-11.3-31.7v-2.8c0-8.8 1.6-16.7 5-23.6a40.1 40.1 0 0 1 14.1-16.3 35.7 35.7 0 0 1 19.7-5.8c11.5 0 20.5 3.8 26.9 11.4s9.6 18.5 9.6 32.6v6.4h-60.2c.3 8.7 2.8 15.8 7.7 21.2a24.1 24.1 0 0 0 18.7 8.1 26.1 26.1 0 0 0 13.6-3.3 35.1 35.1 0 0 0 9.8-8.7l9.3 7.2c-7.5 11.4-18.7 17.1-33.5 17.1zm-1.9-79.6a20.4 20.4 0 0 0-15.4 6.7c-4.2 4.5-6.8 10.7-7.8 18.8h44.5v-1.2c-.4-7.7-2.5-13.7-6.2-17.9s-8.8-6.4-15.1-6.4z"/></svg>