<svg xmlns="http://www.w3.org/2000/svg" width="1000" height="245.9" viewBox="0 0 1000 245.9"><path d="M122.9 240.4L6.9 118.8l44.5 9.2a13.9 13.9 0 0 0 3.5.4h2.2a4.6 4.6 0 0 0 3-1.1l.4-.4a5.9 5.9 0 0 0 1.8-2.9l6.2-21.6 36.7 42.4 5.3 3.3a6.8 6.8 0 0 0 3.1 1.1h.7l39.6 91.1h-28.6"/><path d="M0 190.9l19.5-9.4 1.1-.8v-.2a6.5 6.5 0 0 0 1.1-3.3v-.8a2.8 2.8 0 0 0-.1-.9L6.9 118.7l116.2 121.7H58.4zm114.3-41.6l.3-.2a6.9 6.9 0 0 0 2-3l.8-1.8a4.5 4.5 0 0 0 .3-1.6v-1.5c0-.2-.1-.4-.1-.6l-15.8-92.7 17.5 10 6.5 3.3a11.6 11.6 0 0 0 4.4 1.2 5.4 5.4 0 0 0 2.2-.4h.2l2-1.1h.1a12.2 12.2 0 0 0 4.4-4.9l1.8-3.6L167 0l.9 240.4h-14zm220.4 41.8l-58.2 49.3h-57.3l108.6-121.6-14 52.8a14.2 14.2 0 0 0-.3 5v1.1l.2.3a9.1 9.1 0 0 0 3.3 4.4l2 1.3z"/><path d="M327.8 118.8L219.2 240.4h-51.3L167 0l29.9 58.3a6 6 0 0 0 1.9 2.3l.4.3a7.9 7.9 0 0 0 4.7 1.2l3.1-.4a10.7 10.7 0 0 0 4.4-1.3l21.9-11.8-16.3 89.6a4.9 4.9 0 0 0 0 1.7l.3 4.1a5.4 5.4 0 0 0 1.6 3.4l.4.5a4.5 4.5 0 0 0 2.1 1.2h1.2a7.6 7.6 0 0 0 4.6-1.6l3.3-2.8.7-.6 35.6-41.9 5.2 19.4a13.1 13.1 0 0 0 2.9 5.6 4.2 4.2 0 0 0 2.7 1.4l2.9.2a8.2 8.2 0 0 0 2.2-.2z"/><path fill="#fff" d="M166.4 136.3h2.5v109.58h-2.5z"/><path fill="#fff" d="M167.6 137.5a25.8 25.8 0 1 1 25.8-25.8 25.9 25.9 0 0 1-25.8 25.8zm0-49.1a23.3 23.3 0 1 0 23.4 23.3 23.3 23.3 0 0 0-23.4-23.3zm-80.5 129h2.5v23.07h-2.5z"/><path fill="#fff" d="M88.3 218.6a25.8 25.8 0 1 1 25.9-25.8 25.9 25.9 0 0 1-25.9 25.8zm0-49.1a23.3 23.3 0 1 0 23.4 23.3 23.3 23.3 0 0 0-23.4-23.3zm156.8 34.6h2.5v36.33h-2.5z"/><path fill="#fff" d="M246.3 205.4a25.9 25.9 0 1 1 25.8-25.9 25.9 25.9 0 0 1-25.8 25.9zm0-49.2a23.4 23.4 0 1 0 23.3 23.3 23.3 23.3 0 0 0-23.3-23.3z"/><path d="M450 106.7l8.5 10.4-6.3 5.2-8.5-10.4a41.2 41.2 0 0 1-23.6 7c-11.6 0-21.5-3.9-29.6-11.9s-12.1-17.8-12.1-29.7a40.2 40.2 0 0 1 12.1-29.6 42.6 42.6 0 0 1 59.1 0c8.1 8 12.1 17.8 12.1 29.6s-3.9 21.5-11.7 29.4zm-11.7-1.4l-13.1-16 6.3-5.2 13 15.9a33.3 33.3 0 0 0 8.3-22.7q0-14.2-9.3-23.7c-6.2-6.3-14-9.5-23.4-9.5a31.9 31.9 0 0 0-23.5 9.5q-9.3 9.4-9.3 23.7c0 9.6 3.1 17.6 9.3 23.9s14.1 9.4 23.5 9.4a32.1 32.1 0 0 0 18.2-5.3zm38.8-68h8.9v51c0 14.4 8.1 22.1 21 22.1s21-7.7 21-22.1v-51h8.9v52c0 9.4-2.7 16.6-8.2 21.8s-12.7 7.5-21.7 7.5-16.2-2.5-21.7-7.5-8.2-12.4-8.2-21.8zm80.8 80v-80h9v80zm30.5 0v-80h25.7c12.8 0 22.9 3.7 30.2 11s11.1 17 11.1 29-3.6 21.7-11 29.1-17.4 10.9-30.2 10.9zm9-8.3h16.2c21.5 0 32.9-12.4 32.9-31.7s-11.4-31.7-33.1-31.7h-16zm74.3 8.3v-80h25.7c12.7 0 22.8 3.7 30.2 11s11.1 17 11.1 29-3.7 21.7-11 29.1-17.5 10.9-30.2 10.9zm9-8.3h16.1c21.6 0 32.9-12.4 32.9-31.7s-11.3-31.7-33-31.7h-16zm74.7 8.3v-80h9v80zm45.2 0V45.6h-21.8v-8.3h52.6v8.3h-21.8v71.7zm107.7-67.9l-6.1 5.5c-6.2-7.3-14.3-10.8-24.4-10.8s-17.2 3.2-23.4 9.5-9.3 14.2-9.3 23.7 3.1 17.6 9.3 23.9 14 9.4 23.4 9.4 18.6-3.8 24.8-11.2l6.1 5.5a39.2 39.2 0 0 1-30.9 14 40.7 40.7 0 0 1-29.6-11.9q-12-11.9-12-29.7c0-11.8 4-21.6 12-29.6a41.1 41.1 0 0 1 29.6-11.9c12.3 0 22.5 4.5 30.5 13.6zm14.6 67.9v-80h8.9v33.4h44.4V37.3h9v80h-9V78.9h-44.4v38.4zM472.2 155L460 165.6c-7.3-8.3-16.5-12.3-27.7-12.3a34.6 34.6 0 0 0-25.4 10.3c-6.8 6.7-10.1 15.3-10.1 25.5s3.3 18.8 10.1 25.6 15.3 10.2 25.4 10.2 20.9-4.2 27.9-12.6l12.2 10.5a52.2 52.2 0 0 1-40.1 18.4c-14.9 0-27.6-4.9-38-14.7s-15.5-22.5-15.5-37.4 5.2-27.3 15.5-37.3 23.1-14.9 38-14.9 29.4 6.1 39.9 18.1zm7.1 84.5l42.1-100.8h15.3l42.1 100.8h-19.1l-8.2-20.1h-44.8l-8.3 20.1zm33-35h33.5l-16.7-41.1zm81 35V138.7h15.9l53.3 70v-70H680v100.8h-14.7l-54.5-71.3v71.3zm101.2 0l42.1-100.8h15.3L794 239.5h-19.1l-8.3-20.1h-44.8l-8.2 20.1zm32.9-35H761l-16.8-41.1zm81 35V138.7h36c16.6 0 29.7 4.6 38.9 14s14 21.4 14 36.6-4.6 27.3-13.8 36.4-22.3 13.8-38.9 13.8zm18.1-16.4h16.8c25 0 36-13.1 36-33.8S868.4 155 843.1 155h-16.6zm74 16.4l42.1-100.8h15.3l42.1 100.8h-19.1l-8.2-20.1h-44.9l-8.2 20.1zm33-35H967l-16.7-41.1z"/></svg>